<svg xmlns="http://www.w3.org/2000/svg" width="1360" height="760" viewBox="0 0 1360 760" role="img" aria-labelledby="title desc">
  <title id="title">Release Workflow Job Graph</title>
  <desc id="desc">Dependency graph for .github/workflows/release.yml jobs with inference_smoke_tests gating publish.</desc>
  <defs>
    <style>
      .bg { fill: #ffffff; }
      .box { fill: #f7f9fc; stroke: #1f2937; stroke-width: 2; }
      .build { fill: #eaf2ff; stroke: #1d4ed8; stroke-width: 2.5; }
      .smoke { fill: #ecfeff; stroke: #0e7490; stroke-width: 2.5; }
      .publish { fill: #ecfdf5; stroke: #15803d; stroke-width: 2.5; }
      .disabled { fill: #f9fafb; stroke: #9ca3af; stroke-width: 1.8; stroke-dasharray: 6 5; }
      .label { font-family: Menlo, Consolas, Monaco, monospace; font-size: 20px; fill: #111827; }
      .small { font-family: Menlo, Consolas, Monaco, monospace; font-size: 15px; fill: #374151; }
      .tiny { font-family: Menlo, Consolas, Monaco, monospace; font-size: 13px; fill: #6b7280; }
      .edge { stroke: #374151; stroke-width: 2.2; fill: none; marker-end: url(#arrow); }
      .edge-disabled { stroke: #9ca3af; stroke-width: 1.8; fill: none; marker-end: url(#arrowDisabled); stroke-dasharray: 5 5; }
      .edge-smoke { stroke: #0e7490; stroke-width: 2.2; fill: none; marker-end: url(#arrowSmoke); }
    </style>
    <marker id="arrow" viewBox="0 0 10 10" refX="9" refY="5" markerWidth="8" markerHeight="8" orient="auto-start-reverse">
      <path d="M 0 0 L 10 5 L 0 10 z" fill="#374151" />
    </marker>
    <marker id="arrowDisabled" viewBox="0 0 10 10" refX="9" refY="5" markerWidth="8" markerHeight="8" orient="auto-start-reverse">
      <path d="M 0 0 L 10 5 L 0 10 z" fill="#9ca3af" />
    </marker>
    <marker id="arrowSmoke" viewBox="0 0 10 10" refX="9" refY="5" markerWidth="8" markerHeight="8" orient="auto-start-reverse">
      <path d="M 0 0 L 10 5 L 0 10 z" fill="#0e7490" />
    </marker>
  </defs>

  <rect class="bg" x="0" y="0" width="1360" height="760" />

  <!-- Build jobs -->
  <rect class="box build" x="80" y="120" width="280" height="94" rx="10" ry="10" />
  <text class="label" x="220" y="160" text-anchor="middle">build</text>
  <text class="small" x="220" y="186" text-anchor="middle">matrix: Linux CPU + macOS</text>

  <rect class="box build" x="390" y="120" width="280" height="94" rx="10" ry="10" />
  <text class="label" x="530" y="160" text-anchor="middle">build_linux_cuda</text>
  <text class="small" x="530" y="186" text-anchor="middle">nvidia/cuda container</text>

  <rect class="box build" x="700" y="120" width="280" height="94" rx="10" ry="10" />
  <text class="label" x="840" y="160" text-anchor="middle">build_linux_amd</text>
  <text class="small" x="840" y="186" text-anchor="middle">ROCm container</text>

  <rect class="box build" x="1010" y="120" width="280" height="94" rx="10" ry="10" />
  <text class="label" x="1150" y="160" text-anchor="middle">build_linux_vulkan</text>
  <text class="small" x="1150" y="186" text-anchor="middle">Ubuntu Vulkan build</text>

  <rect class="box smoke" x="470" y="320" width="420" height="106" rx="10" ry="10" />
  <text class="label" x="680" y="366" text-anchor="middle">inference_smoke_tests</text>
  <text class="small" x="680" y="392" text-anchor="middle">linux inference/split/MoE smoke checks</text>

  <!-- Disabled windows job -->
  <rect class="box disabled" x="80" y="320" width="280" height="84" rx="10" ry="10" />
  <text class="small" x="220" y="356" text-anchor="middle">build_windows (disabled)</text>
  <text class="tiny" x="220" y="378" text-anchor="middle">commented out in workflow</text>

  <!-- Publish -->
  <rect class="box publish" x="480" y="540" width="400" height="126" rx="10" ry="10" />
  <text class="label" x="680" y="590" text-anchor="middle">publish</text>
  <text class="small" x="680" y="618" text-anchor="middle">needs: build + CUDA + ROCm + Vulkan + inference_smoke_tests</text>
  <text class="small" x="680" y="640" text-anchor="middle">downloads release-* artifacts and creates GitHub Release</text>

  <!-- Edges -->
  <path class="edge-smoke" d="M220,214 L560,320" />
  <path class="edge" d="M220,214 L560,540" />
  <path class="edge" d="M530,214 L620,540" />
  <path class="edge" d="M840,214 L700,540" />
  <path class="edge" d="M1150,214 L780,540" />
  <path class="edge-smoke" d="M680,426 L680,540" />
  <path class="edge-disabled" d="M220,404 L520,540" />

  <!-- Notes -->
  <text class="tiny" x="680" y="706" text-anchor="middle">
    Trigger: push tag v*. Inference tests run only in inference_smoke_tests and gate publish.
  </text>
</svg>
